<svg width="20" height="20" viewBox="0 0 20 20" xmlns="http://www.w3.org/2000/svg">
<path  clip-rule="evenodd" d="M5 0.833374C4.33696 0.833374 3.70107 1.09677 3.23223 1.56561C2.76339 2.03445 2.5 2.67033 2.5 3.33337L2.5 16.6667C2.5 17.3297 2.76339 17.9656 3.23223 18.4345C3.70107 18.9033 4.33696 19.1667 5 19.1667H15C15.663 19.1667 16.2989 18.9033 16.7678 18.4345C17.2366 17.9656 17.5 17.3297 17.5 16.6667V6.66671C17.5 6.44569 17.4122 6.23373 17.2559 6.07745L12.2559 1.07745C12.0996 0.921171 11.8877 0.833374 11.6667 0.833374L5 0.833374ZM4.41074 2.74412C4.56702 2.58784 4.77899 2.50004 5 2.50004L10.8333 2.50004V6.66671C10.8333 7.12694 11.2064 7.50004 11.6667 7.50004H15.8333V16.6667C15.8333 16.8877 15.7455 17.0997 15.5893 17.256C15.433 17.4122 15.221 17.5 15 17.5H5C4.77899 17.5 4.56702 17.4122 4.41074 17.256C4.25446 17.0997 4.16667 16.8877 4.16667 16.6667L4.16667 3.33337C4.16667 3.11236 4.25446 2.9004 4.41074 2.74412ZM14.6548 5.83337L12.5 3.67855V5.83337H14.6548ZM10 9.16671C10.4602 9.16671 10.8333 9.5398 10.8333 10V11.6667H12.5C12.9602 11.6667 13.3333 12.0398 13.3333 12.5C13.3333 12.9603 12.9602 13.3334 12.5 13.3334H10.8333V15C10.8333 15.4603 10.4602 15.8334 10 15.8334C9.53976 15.8334 9.16667 15.4603 9.16667 15V13.3334H7.5C7.03976 13.3334 6.66667 12.9603 6.66667 12.5C6.66667 12.0398 7.03976 11.6667 7.5 11.6667H9.16667V10C9.16667 9.5398 9.53976 9.16671 10 9.16671Z" />
</svg>
