<svg width="16" height="16" viewBox="0 0 16 16" fill="none" xmlns="http://www.w3.org/2000/svg">
<g clip-path="url(#clip0_194_37)">
<path fill-rule="evenodd" clip-rule="evenodd" d="M7.99999 1.99996C4.68628 1.99996 1.99999 4.68625 1.99999 7.99996C1.99999 11.3137 4.68628 14 7.99999 14C11.3137 14 14 11.3137 14 7.99996C14 4.68625 11.3137 1.99996 7.99999 1.99996ZM0.666656 7.99996C0.666656 3.94987 3.9499 0.666626 7.99999 0.666626C12.0501 0.666626 15.3333 3.94987 15.3333 7.99996C15.3333 12.05 12.0501 15.3333 7.99999 15.3333C3.9499 15.3333 0.666656 12.05 0.666656 7.99996ZM7.99999 7.33329C8.36818 7.33329 8.66666 7.63177 8.66666 7.99996V10.6666C8.66666 11.0348 8.36818 11.3333 7.99999 11.3333C7.6318 11.3333 7.33332 11.0348 7.33332 10.6666V7.99996C7.33332 7.63177 7.6318 7.33329 7.99999 7.33329ZM7.99999 4.66663C7.6318 4.66663 7.33332 4.9651 7.33332 5.33329C7.33332 5.70148 7.6318 5.99996 7.99999 5.99996H8.00666C8.37485 5.99996 8.67332 5.70148 8.67332 5.33329C8.67332 4.9651 8.37485 4.66663 8.00666 4.66663H7.99999Z" fill="white"/>
</g>
<defs>
<clipPath id="clip0_194_37">
<rect width="16" height="16" fill="white"/>
</clipPath>
</defs>
</svg>
