<svg width="20" height="20" viewBox="0 0 20 20" fill="none" xmlns="http://www.w3.org/2000/svg">
<path fill-rule="evenodd" clip-rule="evenodd" d="M1.66666 4.99996C1.66666 4.53972 2.03975 4.16663 2.49999 4.16663H17.5C17.9602 4.16663 18.3333 4.53972 18.3333 4.99996C18.3333 5.4602 17.9602 5.83329 17.5 5.83329H2.49999C2.03975 5.83329 1.66666 5.4602 1.66666 4.99996ZM1.66666 9.99996C1.66666 9.53972 2.03975 9.16663 2.49999 9.16663H17.5C17.9602 9.16663 18.3333 9.53972 18.3333 9.99996C18.3333 10.4602 17.9602 10.8333 17.5 10.8333H2.49999C2.03975 10.8333 1.66666 10.4602 1.66666 9.99996ZM2.49999 14.1666C2.03975 14.1666 1.66666 14.5397 1.66666 15C1.66666 15.4602 2.03975 15.8333 2.49999 15.8333H17.5C17.9602 15.8333 18.3333 15.4602 18.3333 15C18.3333 14.5397 17.9602 14.1666 17.5 14.1666H2.49999Z" fill="#190134"/>
</svg>
