<svg width="12" height="12" viewBox="0 0 12 12" fill="none" xmlns="http://www.w3.org/2000/svg">
<path fill-rule="evenodd" clip-rule="evenodd" d="M10.3536 2.35355C10.5488 2.15829 10.5488 1.84171 10.3536 1.64645C10.1583 1.45118 9.84171 1.45118 9.64645 1.64645L6 5.2929L2.35355 1.64645C2.15829 1.45118 1.84171 1.45118 1.64645 1.64645C1.45118 1.84171 1.45118 2.15829 1.64645 2.35355L5.29289 6.00001L1.64645 9.64646C1.45118 9.84172 1.45118 10.1583 1.64645 10.3536C1.84171 10.5488 2.15829 10.5488 2.35355 10.3536L6 6.70711L9.64645 10.3536C9.84171 10.5488 10.1583 10.5488 10.3536 10.3536C10.5488 10.1583 10.5488 9.84172 10.3536 9.64646L6.70711 6.00001L10.3536 2.35355Z" fill="#685879"/>
</svg>
