<svg width="16" height="16" viewBox="0 0 16 16" fill="none" xmlns="http://www.w3.org/2000/svg">
<g clip-path="url(#clip0_194_23)">
<path fill-rule="evenodd" clip-rule="evenodd" d="M8.00002 1.99996C4.68631 1.99996 2.00002 4.68625 2.00002 7.99996C2.00002 11.3137 4.68631 14 8.00002 14C11.3137 14 14 11.3137 14 7.99996C14 4.68625 11.3137 1.99996 8.00002 1.99996ZM0.666687 7.99996C0.666687 3.94987 3.94993 0.666626 8.00002 0.666626C12.0501 0.666626 15.3334 3.94987 15.3334 7.99996C15.3334 12.05 12.0501 15.3333 8.00002 15.3333C3.94993 15.3333 0.666687 12.05 0.666687 7.99996Z" fill="white"/>
<path fill-rule="evenodd" clip-rule="evenodd" d="M7.99998 9.99996C6.66358 9.99996 6.04394 10.7361 5.9296 10.9648C5.76494 11.2941 5.36449 11.4276 5.03517 11.2629C4.70586 11.0983 4.57237 10.6978 4.73703 10.3685C5.06714 9.70826 6.13639 8.66663 7.99998 8.66663C9.86358 8.66663 10.9328 9.70826 11.2629 10.3685C11.4276 10.6978 11.2941 11.0983 10.9648 11.2629C10.6355 11.4276 10.235 11.2941 10.0704 10.9648C9.95603 10.7361 9.33639 9.99996 7.99998 9.99996Z" fill="white"/>
<path fill-rule="evenodd" clip-rule="evenodd" d="M5.33331 6.00004C5.33331 5.63185 5.63179 5.33337 5.99998 5.33337H6.00665C6.37484 5.33337 6.67331 5.63185 6.67331 6.00004C6.67331 6.36823 6.37484 6.66671 6.00665 6.66671H5.99998C5.63179 6.66671 5.33331 6.36823 5.33331 6.00004Z" fill="white"/>
<path fill-rule="evenodd" clip-rule="evenodd" d="M9.33331 6.00004C9.33331 5.63185 9.63179 5.33337 9.99998 5.33337H10.0066C10.3748 5.33337 10.6733 5.63185 10.6733 6.00004C10.6733 6.36823 10.3748 6.66671 10.0066 6.66671H9.99998C9.63179 6.66671 9.33331 6.36823 9.33331 6.00004Z" fill="white"/>
</g>
<defs>
<clipPath id="clip0_194_23">
<rect width="16" height="16" fill="white"/>
</clipPath>
</defs>
</svg>
