<svg width="96" height="32" viewBox="0 0 96 32" fill="none" xmlns="http://www.w3.org/2000/svg">
<g clip-path="url(#clip0_2319_349)">
<path d="M88.1082 0H7.62818C7.33458 0 7.04418 0 6.75218 0.0016C6.50738 0.0032 6.26418 0.008 6.01698 0.012C5.4798 0.0178658 4.94384 0.0646681 4.41378 0.152C3.88476 0.241766 3.37232 0.410871 2.89378 0.6536C2.41515 0.898683 1.97785 1.21721 1.59778 1.5976C1.21638 1.97626 0.898445 2.41386 0.656177 2.8936C0.413039 3.37268 0.244432 3.88605 0.156177 4.416C0.0671589 4.94537 0.0192824 5.48084 0.0129766 6.0176C0.00497656 6.2632 0.00497656 6.5096 0.000976562 6.7544V25.248C0.00497656 25.496 0.00577656 25.736 0.0129766 25.9848C0.0195436 26.5216 0.0676876 27.0571 0.156977 27.5864C0.244663 28.1169 0.413011 28.6308 0.656177 29.1104C0.898675 29.5883 1.21692 30.0238 1.59858 30.4C1.97678 30.7817 2.41381 31.1001 2.89298 31.3432C3.3718 31.5864 3.88446 31.7563 4.41378 31.8472C4.94389 31.9343 5.47979 31.9817 6.01698 31.9888C6.26498 31.9944 6.50738 31.9976 6.75218 31.9976C7.04498 31.9992 7.33458 31.9992 7.62818 31.9992H88.1082C88.3962 31.9992 88.6874 31.9992 88.9754 31.9976C89.2186 31.9976 89.469 31.9944 89.713 31.9896C90.2491 31.9826 90.784 31.935 91.313 31.8472C91.8439 31.7557 92.3583 31.5858 92.8394 31.3432C93.3183 31.1 93.755 30.7816 94.133 30.4C94.514 30.0219 94.8331 29.5861 95.0786 29.1088C95.3202 28.6289 95.4872 28.115 95.5738 27.5848C95.6628 27.0554 95.7123 26.52 95.7218 25.9832C95.725 25.7352 95.725 25.4952 95.725 25.2464C95.7314 24.9552 95.7314 24.6664 95.7314 24.3712V7.6288C95.7314 7.336 95.7314 7.0448 95.725 6.7552C95.725 6.5104 95.725 6.264 95.7218 6.0192C95.7123 5.48213 95.6629 4.94651 95.5738 4.4168C95.4866 3.88712 95.3193 3.37379 95.0778 2.8944C94.5842 1.93209 93.8013 1.14871 92.8394 0.6544C92.3584 0.412218 91.8439 0.243157 91.313 0.1528C90.7841 0.0648301 90.2491 0.0177574 89.713 0.012C89.469 0.008 89.2186 0.0032 88.9754 0.0016C88.6874 0 88.3954 0 88.1082 0V0Z" fill="#A6A6A6"/>
<path d="M6.75596 31.3C6.51196 31.3 6.27436 31.2968 6.03276 31.292C5.53154 31.2852 5.03151 31.2414 4.53676 31.1608C4.07584 31.0812 3.62933 30.9335 3.21196 30.7224C2.79827 30.5131 2.42092 30.2386 2.09436 29.9096C1.76322 29.584 1.48757 29.2065 1.27836 28.792C1.06642 28.3749 0.919645 27.9279 0.843164 27.4664C0.760999 26.9704 0.716605 26.469 0.710364 25.9664C0.704764 25.7984 0.698364 25.236 0.698364 25.236V6.75595C0.698364 6.75595 0.705564 6.20235 0.710364 6.03995C0.716326 5.53813 0.760454 5.03748 0.842364 4.54235C0.918853 4.07957 1.06561 3.63119 1.27756 3.21275C1.48613 2.79859 1.76034 2.42091 2.08956 2.09435C2.41833 1.76457 2.7968 1.48841 3.21116 1.27595C3.62768 1.06546 4.07345 0.91876 4.53356 0.840751C5.02985 0.759601 5.53152 0.715745 6.03436 0.709551L6.75596 0.699951H88.9712L89.7016 0.710351C90.1996 0.716131 90.6965 0.759454 91.188 0.839951C91.6529 0.918926 92.1034 1.06668 92.5248 1.27835C93.355 1.70625 94.0306 2.38321 94.4568 3.21435C94.6651 3.62999 94.8094 4.07475 94.8848 4.53355C94.9678 5.03269 95.0144 5.53723 95.024 6.04315C95.0264 6.26955 95.0264 6.51355 95.0264 6.75515C95.0328 7.05515 95.0328 7.34075 95.0328 7.62875V24.372C95.0328 24.6624 95.0328 24.9464 95.0264 25.232C95.0264 25.492 95.0264 25.7304 95.0232 25.976C95.0141 26.4727 94.9686 26.9682 94.8872 27.4584C94.8125 27.9232 94.6668 28.3738 94.4552 28.7944C94.2442 29.2044 93.9699 29.5786 93.6424 29.9032C93.3154 30.2341 92.9372 30.5102 92.5224 30.7208C92.1022 30.9336 91.6523 31.0819 91.188 31.1608C90.6935 31.2415 90.1937 31.2851 89.6928 31.2912C89.4584 31.2968 89.2128 31.3 88.9752 31.3L88.108 31.3015L6.75596 31.3Z" fill="black"/>
<path d="M19.8151 16.24C19.8239 15.5724 20.0012 14.9179 20.3308 14.3373C20.6603 13.7567 21.1313 13.2689 21.6999 12.9192C21.3387 12.4031 20.8621 11.9784 20.308 11.6787C19.7539 11.379 19.1376 11.2126 18.5079 11.1928C17.1639 11.052 15.8615 11.9968 15.1767 11.9968C14.4791 11.9968 13.4247 11.2064 12.2903 11.2304C11.5562 11.254 10.8407 11.4675 10.2136 11.85C9.58643 12.2325 9.06909 12.7709 8.71194 13.4128C7.16474 16.0912 8.31914 20.028 9.80074 22.1936C10.5423 23.2536 11.4087 24.4376 12.5431 24.396C13.6527 24.3496 14.0671 23.688 15.4071 23.688C16.7335 23.688 17.1223 24.396 18.2791 24.3696C19.4703 24.3496 20.2199 23.304 20.9351 22.2336C21.4683 21.4783 21.8787 20.6434 22.1511 19.76C21.4592 19.4674 20.8686 18.9776 20.4532 18.3516C20.0378 17.7257 19.8159 16.9912 19.8151 16.24ZM17.6295 9.76795C18.2788 8.98879 18.5988 7.98723 18.5215 6.97595C17.5295 7.08009 16.6131 7.55427 15.9551 8.30395C15.6335 8.66992 15.3871 9.09568 15.2301 9.5569C15.0731 10.0181 15.0085 10.5058 15.0399 10.992C15.536 10.9971 16.0269 10.8896 16.4754 10.6776C16.924 10.4655 17.3186 10.1545 17.6295 9.76795Z" fill="white"/>
<path d="M33.8416 21.712H30.056L29.1464 24.3968H27.5424L31.1296 14.4624H32.796L36.3824 24.3968H34.7512L33.8416 21.712ZM30.4472 20.472H33.4488L31.9688 16.1152H31.928L30.4472 20.472ZM44.128 20.776C44.128 23.0264 42.9232 24.472 41.1048 24.472C40.6444 24.496 40.1866 24.3899 39.7837 24.166C39.3808 23.942 39.049 23.6092 38.8264 23.2056H38.792V26.7928H37.304V17.1536H38.744V18.3584H38.7704C39.0032 17.9565 39.3407 17.6252 39.7468 17.3998C40.1529 17.1744 40.6125 17.0633 41.0768 17.0784C42.9152 17.0784 44.1272 18.5312 44.1272 20.776H44.128ZM42.6 20.776C42.6 19.3096 41.8416 18.3456 40.6856 18.3456C39.5496 18.3456 38.7856 19.3296 38.7856 20.776C38.7856 22.2352 39.5496 23.2128 40.6856 23.2128C41.8416 23.2128 42.6 22.2552 42.6 20.776ZM52.1 20.776C52.1 23.0264 50.8952 24.472 49.0768 24.472C48.6164 24.496 48.1586 24.3899 47.7557 24.166C47.3528 23.942 47.021 23.6092 46.7984 23.2056H46.764V26.7928H45.2768V17.1536H46.716V18.3584H46.7432C46.976 17.9565 47.3135 17.6252 47.7196 17.3998C48.1257 17.1744 48.5853 17.0633 49.0496 17.0784C50.888 17.0784 52.1 18.5312 52.1 20.776ZM50.572 20.776C50.572 19.3096 49.8136 18.3456 48.6576 18.3456C47.5216 18.3456 46.7576 19.3296 46.7576 20.776C46.7576 22.2352 47.5216 23.2128 48.6576 23.2128C49.8136 23.2128 50.5712 22.2552 50.5712 20.776H50.572ZM57.368 21.6288C57.4784 22.6144 58.4352 23.2608 59.744 23.2608C60.9968 23.2608 61.8984 22.6144 61.8984 21.7256C61.8984 20.9544 61.3544 20.4936 60.0664 20.1768L58.7792 19.8664C56.9552 19.4264 56.108 18.5728 56.108 17.188C56.108 15.4744 57.6016 14.2968 59.7232 14.2968C61.8224 14.2968 63.2616 15.4744 63.3096 17.188H61.8088C61.7192 16.1968 60.9 15.5984 59.7016 15.5984C58.5032 15.5984 57.6848 16.204 57.6848 17.0848C57.6848 17.7872 58.208 18.2008 59.4888 18.5168L60.5832 18.7856C62.6216 19.268 63.468 20.0864 63.468 21.54C63.468 23.3983 61.988 24.5624 59.6336 24.5624C57.4304 24.5624 55.9424 23.4264 55.8464 21.6288H57.368ZM66.6768 15.44V17.1536H68.0544V18.3312H66.6768V22.324C66.6768 22.9448 66.9528 23.2336 67.5584 23.2336C67.7218 23.2307 67.8849 23.2192 68.0472 23.1992V24.3696C67.775 24.4204 67.4984 24.4435 67.2216 24.4384C65.7552 24.4384 65.1832 23.8872 65.1832 22.4824V18.3312H64.1304V17.1536H65.1832V15.44H66.6768ZM68.852 20.776C68.852 18.4968 70.1944 17.0648 72.2872 17.0648C74.3872 17.0648 75.7232 18.4968 75.7232 20.776C75.7232 23.0608 74.3944 24.4864 72.2872 24.4864C70.1808 24.4864 68.852 23.0608 68.852 20.776ZM74.208 20.776C74.208 19.2128 73.492 18.2896 72.2872 18.2896C71.0824 18.2896 70.3672 19.2192 70.3672 20.776C70.3672 22.3456 71.0824 23.2608 72.2872 23.2608C73.492 23.2608 74.208 22.3456 74.208 20.776ZM76.9488 17.1536H78.3672V18.3864H78.4016C78.4977 18.0016 78.7232 17.6616 79.0403 17.4234C79.3575 17.1852 79.7468 17.0634 80.1432 17.0784C80.3146 17.0776 80.4855 17.0962 80.6528 17.1336V18.524C80.4365 18.4579 80.2108 18.4277 79.9848 18.4344C79.7688 18.4256 79.5534 18.4637 79.3535 18.546C79.1536 18.6283 78.9739 18.7528 78.8267 18.9111C78.6795 19.0695 78.5683 19.2577 78.5007 19.4631C78.4331 19.6684 78.4107 19.886 78.4352 20.1008V24.3968H76.9488V17.1536ZM87.5072 22.2696C87.3072 23.584 86.0272 24.4864 84.3888 24.4864C82.2816 24.4864 80.9736 23.0752 80.9736 20.8104C80.9736 18.5384 82.2888 17.0648 84.3256 17.0648C86.3304 17.0648 87.5896 18.4408 87.5896 20.6376V21.1472H82.4744V21.2368C82.4508 21.5033 82.4842 21.7718 82.5724 22.0245C82.6606 22.2771 82.8015 22.5081 82.9858 22.7022C83.1702 22.8962 83.3937 23.0487 83.6415 23.1497C83.8893 23.2507 84.1557 23.2978 84.4232 23.288C84.7743 23.3208 85.1268 23.2394 85.428 23.0559C85.7292 22.8725 85.9632 22.5967 86.0952 22.2696H87.5072ZM82.4816 20.108H86.1024C86.1158 19.8683 86.0795 19.6285 85.9958 19.4035C85.9121 19.1786 85.7828 18.9733 85.616 18.8007C85.4493 18.6281 85.2486 18.4918 85.0267 18.4004C84.8048 18.309 84.5663 18.2644 84.3264 18.2696C84.0842 18.2681 83.8442 18.3146 83.6201 18.4064C83.396 18.4981 83.1924 18.6334 83.0209 18.8043C82.8493 18.9752 82.7134 19.1784 82.6208 19.4022C82.5283 19.6259 82.4809 19.8658 82.4816 20.108Z" fill="white"/>
<path d="M30.2607 6.98483C30.5725 6.96247 30.8853 7.00956 31.1766 7.12271C31.4679 7.23586 31.7304 7.41225 31.9453 7.63916C32.1602 7.86607 32.3221 8.13784 32.4192 8.43487C32.5164 8.7319 32.5464 9.04679 32.5071 9.35683C32.5071 10.8816 31.6831 11.7584 30.2607 11.7584H28.5367V6.98403L30.2607 6.98483ZM29.2783 11.0832H30.1783C30.401 11.0964 30.6238 11.0598 30.8306 10.9761C31.0373 10.8924 31.2228 10.7636 31.3735 10.5991C31.5242 10.4347 31.6364 10.2387 31.7019 10.0255C31.7673 9.81226 31.7844 9.58711 31.7519 9.36643C31.7821 9.14661 31.7633 8.92283 31.6969 8.71112C31.6304 8.49942 31.518 8.30503 31.3676 8.14188C31.2172 7.97872 31.0326 7.85085 30.827 7.76741C30.6214 7.68397 30.3999 7.64703 30.1783 7.65923H29.2783V11.0832ZM33.3439 9.95523C33.3222 9.71895 33.3499 9.48071 33.4254 9.25575C33.5009 9.03079 33.6225 8.82405 33.7824 8.64873C33.9423 8.47341 34.137 8.33337 34.3541 8.23755C34.5712 8.14173 34.8059 8.09224 35.0431 8.09224C35.2804 8.09224 35.5151 8.14173 35.7322 8.23755C35.9493 8.33337 36.144 8.47341 36.3039 8.64873C36.4638 8.82405 36.5854 9.03079 36.6609 9.25575C36.7364 9.48071 36.7641 9.71895 36.7423 9.95523C36.766 10.1925 36.7396 10.4321 36.665 10.6586C36.5904 10.8851 36.4691 11.0934 36.3091 11.2702C36.1491 11.447 35.9538 11.5882 35.7358 11.6849C35.5178 11.7816 35.282 11.8316 35.0435 11.8316C34.8051 11.8316 34.5693 11.7816 34.3513 11.6849C34.1333 11.5882 33.938 11.447 33.778 11.2702C33.6179 11.0934 33.4967 10.8851 33.4221 10.6586C33.3475 10.4321 33.3211 10.1925 33.3447 9.95523H33.3439ZM36.0111 9.95523C36.0111 9.17443 35.6599 8.71763 35.0447 8.71763C34.4263 8.71763 34.0791 9.17443 34.0791 9.95523C34.0791 10.7424 34.4263 11.1952 35.0447 11.1952C35.6607 11.1952 36.0111 10.7392 36.0111 9.95523ZM41.2583 11.7584H40.5207L39.7767 9.10483H39.7207L38.9791 11.7584H38.2487L37.2551 8.15603H37.9767L38.6215 10.9048H38.6751L39.4159 8.15603H40.0975L40.8383 10.9048H40.8943L41.5367 8.15603H42.2479L41.2583 11.7584ZM43.0831 8.15603H43.7671V8.72803H43.8199C43.9101 8.5225 44.0622 8.35022 44.2549 8.23521C44.4476 8.1202 44.6714 8.06819 44.8951 8.08643C45.0704 8.07327 45.2465 8.0997 45.4102 8.16379C45.5739 8.22787 45.7211 8.32797 45.8408 8.45665C45.9606 8.58534 46.0499 8.73932 46.1021 8.90719C46.1543 9.07506 46.168 9.25252 46.1423 9.42643V11.7584H45.4311V9.60483C45.4311 9.02563 45.1799 8.73763 44.6535 8.73763C44.5346 8.73212 44.4158 8.7524 44.3054 8.79707C44.195 8.84175 44.0955 8.90976 44.0138 8.99645C43.9322 9.08314 43.8702 9.18647 43.8322 9.29935C43.7941 9.41223 43.781 9.53199 43.7935 9.65043V11.7584H43.0831V8.15603ZM47.2751 6.74963H47.9855V11.7576H47.2751V6.74963ZM48.9743 9.95523C48.9519 9.71864 48.9792 9.47998 49.0544 9.25453C49.1296 9.02908 49.251 8.82183 49.4109 8.64604C49.5709 8.47025 49.7658 8.32981 49.9831 8.23371C50.2005 8.1376 50.4355 8.08796 50.6731 8.08796C50.9108 8.08796 51.1458 8.1376 51.3632 8.23371C51.5805 8.32981 51.7754 8.47025 51.9353 8.64604C52.0953 8.82183 52.2167 9.02908 52.2919 9.25453C52.3671 9.47998 52.3943 9.71864 52.3719 9.95523C52.3956 10.1925 52.3692 10.4321 52.2946 10.6586C52.22 10.8851 52.0987 11.0934 51.9387 11.2702C51.7787 11.447 51.5834 11.5882 51.3654 11.6849C51.1474 11.7816 50.9116 11.8316 50.6731 11.8316C50.4347 11.8316 50.1989 11.7816 49.9809 11.6849C49.7629 11.5882 49.5676 11.447 49.4076 11.2702C49.2475 11.0934 49.1263 10.8851 49.0517 10.6586C48.9771 10.4321 48.9507 10.1925 48.9743 9.95523ZM51.6407 9.95523C51.6407 9.17443 51.2895 8.71763 50.6743 8.71763C50.0559 8.71763 49.7087 9.17443 49.7087 9.95523C49.7087 10.7424 50.0559 11.1952 50.6743 11.1952C51.2903 11.1952 51.6407 10.7392 51.6407 9.95523ZM53.1199 10.7392C53.1199 10.0912 53.6031 9.71683 54.4607 9.66403L55.4367 9.60803V9.29683C55.4367 8.91683 55.1847 8.70163 54.6991 8.70163C54.3015 8.70163 54.0271 8.84723 53.9479 9.10163H53.2599C53.3319 8.48323 53.9143 8.08563 54.7319 8.08563C55.6343 8.08563 56.1439 8.53603 56.1439 9.29683V11.7584H55.4599V11.252H55.4039C55.2897 11.4337 55.1294 11.5818 54.9392 11.6811C54.749 11.7805 54.5359 11.8276 54.3215 11.8176C54.1703 11.8334 54.0174 11.8173 53.8727 11.7703C53.7281 11.7234 53.5949 11.6466 53.4818 11.545C53.3686 11.4434 53.278 11.3192 53.2158 11.1804C53.1537 11.0416 53.1213 10.8913 53.1207 10.7392H53.1199ZM55.4359 10.432V10.1304L54.5559 10.1864C54.0599 10.22 53.8359 10.3888 53.8359 10.7064C53.8359 11.0304 54.1167 11.2184 54.5031 11.2184C54.6164 11.2299 54.7307 11.2184 54.8394 11.1848C54.9482 11.1512 55.049 11.096 55.136 11.0227C55.223 10.9493 55.2944 10.8593 55.3459 10.7578C55.3974 10.6563 55.428 10.5456 55.4359 10.432ZM57.0783 9.95523C57.0783 8.81683 57.6639 8.09603 58.5743 8.09603C58.7994 8.08579 59.0226 8.13978 59.2181 8.25169C59.4136 8.3636 59.5732 8.52881 59.6783 8.72803H59.7319V6.74963H60.4423V11.7576H59.7615V11.1896H59.7055C59.5921 11.3876 59.4267 11.5508 59.2271 11.6615C59.0276 11.7722 58.8016 11.8262 58.5735 11.8176C57.6575 11.8176 57.0783 11.0968 57.0783 9.95523ZM57.8127 9.95523C57.8127 10.7192 58.1727 11.1792 58.7751 11.1792C59.3751 11.1792 59.7447 10.7128 59.7447 9.95843C59.7447 9.20803 59.3703 8.73443 58.7751 8.73443C58.1767 8.73443 57.8127 9.19843 57.8127 9.95523ZM63.3839 9.95523C63.3615 9.71864 63.3888 9.47998 63.464 9.25453C63.5392 9.02908 63.6606 8.82183 63.8205 8.64604C63.9805 8.47025 64.1753 8.32981 64.3927 8.23371C64.6101 8.1376 64.8451 8.08796 65.0827 8.08796C65.3204 8.08796 65.5554 8.1376 65.7728 8.23371C65.9901 8.32981 66.185 8.47025 66.3449 8.64604C66.5049 8.82183 66.6263 9.02908 66.7015 9.25453C66.7767 9.47998 66.8039 9.71864 66.7815 9.95523C66.8052 10.1925 66.7788 10.4321 66.7042 10.6586C66.6296 10.8851 66.5083 11.0934 66.3483 11.2702C66.1883 11.447 65.993 11.5882 65.775 11.6849C65.557 11.7816 65.3212 11.8316 65.0827 11.8316C64.8443 11.8316 64.6085 11.7816 64.3905 11.6849C64.1725 11.5882 63.9772 11.447 63.8172 11.2702C63.6571 11.0934 63.5359 10.8851 63.4613 10.6586C63.3867 10.4321 63.3603 10.1925 63.3839 9.95523ZM66.0503 9.95523C66.0503 9.17443 65.6999 8.71763 65.0839 8.71763C64.4663 8.71763 64.1183 9.17443 64.1183 9.95523C64.1183 10.7424 64.4663 11.1952 65.0839 11.1952C65.6999 11.1952 66.0503 10.7392 66.0503 9.95523ZM67.7359 8.15603H68.4199V8.72803H68.4727C68.5629 8.5225 68.715 8.35022 68.9077 8.23521C69.1004 8.1202 69.3242 8.06819 69.5479 8.08643C69.7232 8.07327 69.8993 8.0997 70.063 8.16379C70.2267 8.22787 70.3739 8.32797 70.4936 8.45665C70.6134 8.58534 70.7027 8.73932 70.7549 8.90719C70.8071 9.07506 70.8208 9.25252 70.7951 9.42643V11.7584H70.0839V9.60483C70.0839 9.02563 69.8327 8.73763 69.3063 8.73763C69.1874 8.73212 69.0686 8.7524 68.9582 8.79707C68.8478 8.84175 68.7483 8.90976 68.6666 8.99645C68.5849 9.08314 68.523 9.18647 68.485 9.29935C68.4469 9.41223 68.4338 9.53199 68.4463 9.65043V11.7584H67.7351L67.7359 8.15603ZM74.8119 7.25923V8.17203H75.5927V8.77123H74.8119V10.6232C74.8119 11.0008 74.9671 11.1664 75.3215 11.1664C75.4122 11.166 75.5027 11.1604 75.5927 11.1496V11.7416C75.4649 11.7647 75.3354 11.777 75.2055 11.7784C74.4151 11.7784 74.1007 11.5 74.1007 10.8056V8.77123H73.5287V8.17203H74.1007V7.25923H74.8119ZM76.5639 6.74963H77.2679V8.73443H77.3239C77.4186 8.52696 77.5749 8.35373 77.7716 8.23835C77.9684 8.12296 78.1959 8.07103 78.4231 8.08963C78.5975 8.08018 78.7718 8.10933 78.9336 8.175C79.0954 8.24067 79.2407 8.34124 79.3591 8.46954C79.4776 8.59784 79.5662 8.7507 79.6188 8.91721C79.6713 9.08373 79.6865 9.25979 79.6631 9.43283V11.7584H78.9519V9.60803C78.9519 9.03203 78.6839 8.74083 78.1815 8.74083C78.0593 8.73079 77.9364 8.74758 77.8213 8.79003C77.7062 8.83248 77.6018 8.89957 77.5154 8.9866C77.429 9.07363 77.3626 9.17849 77.321 9.29385C77.2794 9.40921 77.2634 9.53227 77.2743 9.65443V11.7584H76.5639V6.74963ZM83.8087 10.7856C83.7122 11.1147 83.5031 11.3994 83.2179 11.59C82.9328 11.7805 82.5897 11.8648 82.2487 11.828C82.0113 11.8345 81.7753 11.7891 81.5571 11.6951C81.3389 11.6011 81.1439 11.4607 80.9854 11.2837C80.827 11.1067 80.709 10.8973 80.6397 10.6701C80.5703 10.4429 80.5513 10.2033 80.5839 9.96803C80.5524 9.73217 80.5719 9.49229 80.6412 9.26463C80.7104 9.03696 80.8277 8.82682 80.9852 8.64842C81.1426 8.47001 81.3366 8.32751 81.5539 8.23056C81.7712 8.1336 82.0068 8.08445 82.2447 8.08643C83.2471 8.08643 83.8519 8.77123 83.8519 9.90243V10.1504H81.3079V10.1904C81.2968 10.3227 81.3134 10.4558 81.3567 10.5813C81.4001 10.7067 81.4691 10.8217 81.5595 10.9189C81.6499 11.0161 81.7597 11.0933 81.8816 11.1456C82.0036 11.1978 82.1352 11.224 82.2679 11.2224C82.4378 11.2426 82.6099 11.2118 82.7623 11.134C82.9147 11.0563 83.0405 10.935 83.1239 10.7856H83.8087ZM81.3079 9.62483H83.1279C83.137 9.50384 83.1207 9.3823 83.0799 9.26801C83.0392 9.15373 82.9749 9.04925 82.8914 8.9613C82.8078 8.87335 82.7067 8.80388 82.5947 8.75736C82.4826 8.71085 82.362 8.68832 82.2407 8.69123C82.1178 8.68973 81.9957 8.71285 81.8818 8.75925C81.7679 8.80564 81.6644 8.87437 81.5775 8.96137C81.4906 9.04838 81.4219 9.1519 81.3756 9.26585C81.3293 9.37979 81.3063 9.50185 81.3079 9.62483Z" fill="white"/>
</g>
<defs>
<clipPath id="clip0_2319_349">
<rect width="95.7312" height="32" fill="white"/>
</clipPath>
</defs>
</svg>
