<svg width="110" height="32" viewBox="0 0 110 32" fill="none" xmlns="http://www.w3.org/2000/svg">
<g clip-path="url(#clip0_2319_337)">
<path fill-rule="evenodd" clip-rule="evenodd" d="M105.158 32H4.74916C2.53469 32 0.731201 30.1965 0.731201 28V4C0.731201 1.79551 2.53469 0 4.74916 0H105.158C107.371 0 109.176 1.79551 109.176 4V28C109.176 30.1965 107.371 32 105.158 32Z" fill="black"/>
<path fill-rule="evenodd" clip-rule="evenodd" d="M105.158 0.640399C107.015 0.640399 108.536 2.15062 108.536 4V28C108.536 29.8494 107.025 31.3596 105.158 31.3596H4.74916C2.8918 31.3596 1.3716 29.8494 1.3716 28V4C1.3716 2.15062 2.88182 0.640399 4.74916 0.640399H105.158ZM105.158 0H4.74916C2.53469 0 0.731201 1.80349 0.731201 4V28C0.731201 30.2045 2.53469 32 4.74916 32H105.158C107.371 32 109.176 30.2045 109.176 28V4C109.176 1.80349 107.371 0 105.158 0Z" fill="#A6A6A6"/>
<path d="M57.8602 10.5854C57.1361 10.5854 56.5256 10.3321 56.0428 9.8333C55.564 9.34851 55.2967 8.68018 55.3086 7.99789C55.3086 7.26971 55.556 6.65325 56.0428 6.16447C56.5236 5.66572 57.1341 5.41235 57.8582 5.41235C58.5744 5.41235 59.1849 5.66572 59.6757 6.16447C60.1625 6.66921 60.4098 7.28567 60.4098 7.99789C60.4019 8.72806 60.1545 9.34452 59.6757 9.83131C59.1949 10.334 58.5844 10.5854 57.8602 10.5854ZM36.3123 10.5854C35.6041 10.5854 34.9896 10.336 34.4869 9.84328C33.9881 9.3525 33.7347 8.73205 33.7347 7.99989C33.7347 7.26772 33.9881 6.64727 34.4869 6.15649C34.9796 5.66373 35.5941 5.41435 36.3123 5.41435C36.6634 5.41435 37.0045 5.48417 37.3317 5.62582C37.6529 5.76348 37.9143 5.95101 38.1078 6.18043L38.1557 6.23829L37.615 6.76896L37.5591 6.70313C37.2539 6.34003 36.8449 6.16248 36.3043 6.16248C35.8215 6.16248 35.4006 6.33405 35.0534 6.6732C34.7043 7.01435 34.5268 7.46123 34.5268 8.00188C34.5268 8.54253 34.7043 8.98941 35.0534 9.33056C35.4006 9.66971 35.8215 9.84128 36.3043 9.84128C36.819 9.84128 37.2519 9.66971 37.5891 9.33056C37.7886 9.13106 37.9123 8.85176 37.9562 8.49864H36.2225V7.7525H38.7003L38.7103 7.82033C38.7282 7.94602 38.7462 8.0757 38.7462 8.1954C38.7462 8.88368 38.5387 9.44028 38.1277 9.85126C37.6609 10.338 37.0504 10.5854 36.3123 10.5854ZM64.9624 10.4797H64.1983L61.8582 6.73505L61.8782 7.40936V10.4777H61.1141V5.52008H61.9859L62.0098 5.55799L64.2103 9.08517L64.1904 8.41285V5.52008H64.9624V10.4797ZM52.1186 10.4797H51.3446V6.26622H50.0019V5.52008H53.4593V6.26622H52.1166V10.4797H52.1186ZM49.3715 10.4797H48.5995V5.52008H49.3715V10.4797ZM45.0324 10.4797H44.2603V6.26622H42.9177V5.52008H46.375V6.26622H45.0324V10.4797ZM42.4289 10.4717H39.4684V5.52008H42.4289V6.26622H40.2424V7.62682H42.2155V8.36497H40.2424V9.72557H42.4289V10.4717ZM56.6094 9.32058C56.9545 9.66572 57.3735 9.83929 57.8602 9.83929C58.361 9.83929 58.77 9.66971 59.1111 9.32058C59.4503 8.98143 59.6218 8.53654 59.6218 7.99989C59.6218 7.46323 59.4503 7.01634 59.1131 6.67919C58.768 6.33405 58.347 6.16048 57.8622 6.16048C57.3615 6.16048 56.9525 6.33006 56.6134 6.67919C56.2742 7.01834 56.1026 7.46323 56.1026 7.99989C56.1026 8.53654 56.2722 8.98343 56.6094 9.32058Z" fill="white"/>
<path fill-rule="evenodd" clip-rule="evenodd" d="M55.2369 17.4045C53.3516 17.4045 51.8234 18.835 51.8234 20.808C51.8234 22.7631 53.3616 24.2115 55.2369 24.2115C57.1222 24.2115 58.6504 22.7711 58.6504 20.808C58.6504 18.835 57.1222 17.4045 55.2369 17.4045ZM55.2369 22.8629C54.2055 22.8629 53.3177 22.009 53.3177 20.8C53.3177 19.5731 54.2075 18.7372 55.2369 18.7372C56.2683 18.7372 57.1561 19.5731 57.1561 20.8C57.1581 22.017 56.2683 22.8629 55.2369 22.8629ZM47.7895 17.4045C45.9042 17.4045 44.376 18.835 44.376 20.808C44.376 22.7631 45.9142 24.2115 47.7895 24.2115C49.6748 24.2115 51.203 22.7711 51.203 20.808C51.203 18.835 49.6728 17.4045 47.7895 17.4045ZM47.7895 22.8629C46.7581 22.8629 45.8703 22.009 45.8703 20.8C45.8703 19.5731 46.7601 18.7372 47.7895 18.7372C48.8209 18.7372 49.7087 19.5731 49.7087 20.8C49.7087 22.017 48.8209 22.8629 47.7895 22.8629ZM38.9277 18.4439V19.8843H42.385C42.2793 20.6923 42.012 21.2888 41.603 21.6978C41.0962 22.2045 40.3142 22.7552 38.9356 22.7552C36.8109 22.7552 35.1491 21.0394 35.1491 18.9148C35.1491 16.7901 36.8109 15.0744 38.9356 15.0744C40.0828 15.0744 40.9187 15.5272 41.5391 16.1058L42.5606 15.0843C41.6987 14.2584 40.5516 13.626 38.9436 13.626C36.0289 13.626 33.583 16 33.583 18.9068C33.583 21.8215 36.0269 24.1876 38.9436 24.1876C40.5177 24.1876 41.6987 23.6729 42.6324 22.7033C43.584 21.7517 43.8853 20.409 43.8853 19.3257C43.8853 18.9886 43.8593 18.6853 43.8055 18.428H38.9257C38.9277 18.426 38.9277 18.4439 38.9277 18.4439ZM75.1751 19.5651C74.8898 18.801 74.028 17.3965 72.2604 17.3965C70.5088 17.3965 69.0524 18.7751 69.0524 20.8C69.0524 22.7113 70.4928 24.2035 72.43 24.2035C73.9861 24.2035 74.8918 23.2519 75.2649 22.6933L74.1098 21.9192C73.7267 22.4878 73.1941 22.8609 72.4379 22.8609C71.6739 22.8609 71.1392 22.5138 70.7841 21.8295L75.3347 19.9442C75.3347 19.9462 75.1751 19.5651 75.1751 19.5651ZM70.5347 20.7023C70.4988 19.3876 71.5561 18.7192 72.3123 18.7192C72.9088 18.7192 73.4055 19.0125 73.5751 19.4394L70.5347 20.7023ZM66.8379 24H68.3322V14.001H66.8379V24ZM64.3841 18.1606H64.3302C63.993 17.7596 63.3526 17.3965 62.5347 17.3965C60.8369 17.3965 59.2728 18.8908 59.2728 20.81C59.2728 22.7212 60.8289 24.1975 62.5347 24.1975C63.3427 24.1975 63.993 23.8325 64.3302 23.4235H64.3841V23.9123C64.3841 25.211 63.6898 25.9113 62.5706 25.9113C61.6549 25.9113 61.0863 25.2529 60.8549 24.7023L59.5561 25.2449C59.9292 26.1427 60.9247 27.2539 62.5686 27.2539C64.3202 27.2539 65.8045 26.2225 65.8045 23.7068V17.6H64.392V18.1606H64.3841ZM62.6684 22.8629C61.6369 22.8629 60.7751 22.001 60.7751 20.81C60.7751 19.609 61.6369 18.7392 62.6684 18.7392C63.6898 18.7392 64.4818 19.619 64.4818 20.81C64.4918 22.001 63.6918 22.8629 62.6684 22.8629ZM82.1716 14.001H78.5986V24H80.0928V20.2135H82.1736C83.8275 20.2135 85.4534 19.0145 85.4534 17.1113C85.4534 15.208 83.8335 14.001 82.1716 14.001ZM82.2155 18.817H80.0908V15.3856H82.2155C83.3347 15.3856 83.9671 16.3093 83.9671 17.1013C83.9671 17.8853 83.3267 18.817 82.2155 18.817ZM91.4425 17.3866C90.3572 17.3866 89.238 17.8674 88.7751 18.9148L90.0998 19.4654C90.3851 18.9148 90.9078 18.7272 91.4604 18.7272C92.2345 18.7272 93.0165 19.1901 93.0345 20.016V20.1217C92.7672 19.9701 92.1806 19.7387 91.4784 19.7387C90.048 19.7387 88.5976 20.5207 88.5976 21.9871C88.5976 23.3297 89.7706 24.1916 91.0774 24.1916C92.0809 24.1916 92.6335 23.7387 92.9786 23.214H93.0325V23.9881H94.4729V20.1576C94.4729 18.3741 93.1482 17.3866 91.4425 17.3866ZM91.2549 22.8629C90.7662 22.8629 90.0819 22.6235 90.0819 22.009C90.0819 21.235 90.9357 20.9417 91.6639 20.9417C92.3223 20.9417 92.6335 21.0833 93.0245 21.2788C92.9168 22.1766 92.1587 22.8549 91.2549 22.8629ZM99.7278 17.6L98.0121 21.9372H97.9582L96.1806 17.6H94.5726L97.24 23.6629L95.7198 27.0325H97.2759L101.38 17.6H99.7278ZM86.2774 24H87.7716V14.001H86.2774V24Z" fill="white"/>
<path fill-rule="evenodd" clip-rule="evenodd" d="M9.07834 6.02689C8.84692 6.27626 8.71326 6.65731 8.71326 7.15607V24.8458C8.71326 25.3446 8.84692 25.7256 9.08632 25.965L9.14817 26.0189L19.0594 16.1077V15.8862L9.14019 5.97302L9.07834 6.02689Z" fill="url(#paint0_linear_2319_337)"/>
<path fill-rule="evenodd" clip-rule="evenodd" d="M22.3571 19.4215L19.0514 16.1158V15.8843L22.3571 12.5786L22.4289 12.6225L26.3391 14.8449C27.4583 15.4754 27.4583 16.5168 26.3391 17.1552L22.4289 19.3776L22.3571 19.4215Z" fill="url(#paint1_linear_2319_337)"/>
<path fill-rule="evenodd" clip-rule="evenodd" d="M22.4289 19.3776L19.0513 16L9.07825 25.9731C9.44333 26.3641 10.0558 26.408 10.7401 26.0269L22.4289 19.3776Z" fill="url(#paint2_linear_2319_337)"/>
<path fill-rule="evenodd" clip-rule="evenodd" d="M22.4289 12.6225L10.7401 5.98305C10.0558 5.59203 9.44134 5.6459 9.07825 6.03692L19.0513 16L22.4289 12.6225Z" fill="url(#paint3_linear_2319_337)"/>
<path opacity="0.2" fill-rule="evenodd" clip-rule="evenodd" d="M22.3571 19.3057L10.7481 25.9013C10.0998 26.2743 9.52122 26.2484 9.14815 25.9092L9.0863 25.9711L9.14815 26.025C9.52122 26.3621 10.0998 26.39 10.7481 26.017L22.4369 19.3775L22.3571 19.3057Z" fill="black"/>
<path opacity="0.12" fill-rule="evenodd" clip-rule="evenodd" d="M26.3392 17.0394L22.3472 19.3057L22.419 19.3776L26.3292 17.1551C26.8898 16.8359 27.1651 16.417 27.1651 16C27.1312 16.383 26.8459 16.7461 26.3392 17.0394Z" fill="black"/>
<path opacity="0.25" fill-rule="evenodd" clip-rule="evenodd" d="M10.7402 6.09883L26.3392 14.9607C26.8459 15.246 27.1312 15.619 27.1751 16.0001C27.1751 15.5831 26.8998 15.1642 26.3392 14.845L10.7402 5.98312C9.62099 5.34272 8.71326 5.87738 8.71326 7.15619V7.2719C8.71326 5.9911 9.62099 5.46641 10.7402 6.09883Z" fill="white"/>
</g>
<defs>
<linearGradient id="paint0_linear_2319_337" x1="18.1704" y1="6.96536" x2="2.2942" y2="11.1956" gradientUnits="userSpaceOnUse">
<stop stop-color="#00A0FF"/>
<stop offset="0.007" stop-color="#00A1FF"/>
<stop offset="0.26" stop-color="#00BEFF"/>
<stop offset="0.512" stop-color="#00D2FF"/>
<stop offset="0.76" stop-color="#00DFFF"/>
<stop offset="1" stop-color="#00E3FF"/>
</linearGradient>
<linearGradient id="paint1_linear_2319_337" x1="27.7986" y1="16" x2="8.44124" y2="16" gradientUnits="userSpaceOnUse">
<stop stop-color="#FFE000"/>
<stop offset="0.409" stop-color="#FFBD00"/>
<stop offset="0.775" stop-color="#FFA500"/>
<stop offset="1" stop-color="#FF9C00"/>
</linearGradient>
<linearGradient id="paint2_linear_2319_337" x1="20.5922" y1="17.838" x2="7.847" y2="39.289" gradientUnits="userSpaceOnUse">
<stop stop-color="#FF3A44"/>
<stop offset="1" stop-color="#C31162"/>
</linearGradient>
<linearGradient id="paint3_linear_2319_337" x1="6.567" y1="0.142947" x2="12.2531" y2="9.7235" gradientUnits="userSpaceOnUse">
<stop stop-color="#32A071"/>
<stop offset="0.069" stop-color="#2DA771"/>
<stop offset="0.476" stop-color="#15CF74"/>
<stop offset="0.801" stop-color="#06E775"/>
<stop offset="1" stop-color="#00F076"/>
</linearGradient>
<clipPath id="clip0_2319_337">
<rect width="108.445" height="32" fill="white" transform="translate(0.731201)"/>
</clipPath>
</defs>
</svg>
